<?xml version="1.0" standalone="no"?>
<!DOCTYPE svg PUBLIC "-//W3C//DTD SVG 20010904//EN"
 "http://www.w3.org/TR/2001/REC-SVG-20010904/DTD/svg10.dtd">
<svg version="1.0" xmlns="http://www.w3.org/2000/svg"
 width="300.000000pt" height="300.000000pt" viewBox="0 0 300.000000 300.000000"
 preserveAspectRatio="xMidYMid meet">
<metadata>
Created by potrace 1.16, written by Peter Selinger 2001-2019
</metadata>
<g transform="translate(0.000000,300.000000) scale(0.100000,-0.100000)"
fill="#0099a7" stroke="none">
<path d="M0 1500 l0 -1500 1500 0 1500 0 0 1500 0 1500 -1500 0 -1500 0 0
-1500z m1687 658 c11 -18 108 -49 130 -42 12 4 14 3 5 -3 -9 -7 -4 -15 20 -33
18 -13 37 -30 41 -37 5 -7 13 -10 19 -7 7 4 8 2 4 -4 -4 -6 2 -30 14 -54 11
-23 20 -51 20 -62 0 -17 2 -18 10 -6 7 11 11 9 19 -13 14 -37 13 -59 -1 -27
l-11 25 -7 -30 c-4 -16 -8 -45 -9 -63 -1 -37 -29 -96 -59 -128 l-21 -22 57 0
c31 0 62 0 67 -1 6 -1 9 -21 7 -46 l-4 -45 -202 0 c-235 0 -280 9 -343 67 -43
41 -83 104 -83 132 0 10 -3 21 -7 24 -12 13 -1 131 17 180 10 27 16 56 13 64
-4 11 -2 14 6 9 7 -5 27 8 52 32 25 26 35 42 27 45 -7 2 -3 3 8 1 12 -2 38 3
58 11 19 8 60 15 91 15 65 0 74 17 13 23 l-43 4 42 1 c24 1 45 -3 50 -10z
m-454 -34 c14 -10 31 -32 37 -48 6 -17 10 -119 10 -241 0 -177 -3 -215 -15
-225 -8 -7 -15 -18 -15 -25 0 -6 -8 -13 -17 -15 -31 -6 -515 -8 -509 -3 3 3
-4 17 -14 31 -19 23 -20 41 -20 242 0 169 3 225 15 251 8 19 14 30 15 25 0 -5
8 -2 18 6 24 22 33 23 263 22 187 0 208 -2 232 -20z m1082 -270 l0 -289 -57
-3 c-42 -2 -58 1 -58 10 -1 7 0 97 0 201 1 146 -2 187 -12 187 -9 0 -9 3 2 10
8 5 12 12 8 15 -3 4 -24 -10 -46 -29 -22 -20 -44 -36 -50 -36 -5 0 -24 16 -42
36 l-31 36 42 37 c23 20 52 43 63 51 12 8 30 24 41 36 26 27 40 31 95 29 l45
-1 0 -290z m-1519 -529 l1 -150 94 -2 c52 -1 99 -2 104 -2 6 -1 9 -20 7 -46
l-4 -45 -154 0 -154 0 -1 158 c-1 86 -3 171 -5 187 -6 50 1 56 58 53 l53 -3 1
-150z m510 134 c7 -6 18 -8 24 -4 6 4 9 3 8 -2 -1 -4 12 -22 28 -40 57 -59 71
-137 38 -217 -5 -14 -4 -17 6 -11 8 5 11 3 9 -4 -3 -7 -7 -11 -10 -9 -3 2 -25
-14 -48 -35 -51 -46 -78 -57 -140 -57 -95 0 -148 32 -186 112 -12 26 -24 46
-26 44 -2 -2 -4 20 -4 49 0 29 2 49 5 45 3 -5 16 13 28 40 22 49 62 82 120
101 33 10 131 2 148 -12z m452 -4 c18 -9 40 -28 48 -41 9 -13 21 -21 27 -17 6
3 7 1 3 -5 -4 -6 -2 -21 4 -32 13 -24 19 -139 8 -146 -5 -3 -8 -15 -8 -27 -1
-14 -17 -35 -45 -56 -24 -19 -42 -37 -40 -40 5 -9 -113 -13 -157 -6 -60 10
-123 80 -138 151 -10 46 -9 62 6 107 10 28 17 61 17 72 -1 17 -1 17 3 2 5 -16
10 -14 40 13 19 16 47 32 62 36 15 3 32 8 37 10 20 8 101 -5 133 -21z m267
-51 l-3 -77 77 77 76 76 57 0 c87 0 94 -6 50 -44 -55 -47 -123 -118 -120 -125
11 -23 54 -81 61 -81 5 0 5 5 1 12 -4 7 -3 8 4 4 6 -4 9 -13 6 -20 -7 -19 67
-121 76 -106 4 7 8 1 8 -14 0 -26 -1 -26 -74 -26 -66 0 -74 2 -86 23 -29 52
-73 117 -80 117 -17 0 -59 -65 -58 -89 4 -50 2 -51 -55 -51 l-55 0 0 200 0
200 59 0 59 0 -3 -76z"/>
<path d="M1616 2025 c-3 -8 -12 -12 -21 -9 -27 11 -79 -31 -111 -90 -13 -24
-14 -30 -2 -37 10 -7 10 -9 1 -9 -35 0 7 -153 46 -168 9 -3 19 -11 24 -18 4
-7 31 -18 60 -24 46 -11 58 -10 85 4 17 9 38 16 47 16 14 0 20 12 16 33 -1 5
3 6 9 2 12 -7 60 90 60 122 0 29 -29 103 -49 127 -22 25 -105 66 -135 66 -13
0 -26 -7 -30 -15z"/>
<path d="M956 2072 c-15 -3 -16 -6 -5 -13 8 -5 10 -9 4 -9 -10 0 -11 -120 -1
-146 6 -16 8 -16 -101 -15 -46 0 -84 -4 -84 -10 -1 -5 -2 -15 -3 -21 -1 -7 2
-21 6 -30 7 -15 23 -18 93 -18 l85 0 0 -89 c0 -79 2 -89 19 -94 11 -2 24 0 30
6 8 8 11 7 11 -4 0 -12 2 -12 10 1 6 8 10 53 9 99 l-2 83 89 2 89 1 0 35 0 35
-90 1 -90 2 3 78 c1 44 -1 85 -6 92 -10 14 -38 21 -66 14z"/>
<path d="M1177 1365 c-46 -24 -60 -44 -60 -86 0 -44 26 -80 73 -99 66 -27 144
51 123 124 -9 31 -63 76 -92 76 -9 0 -28 -7 -44 -15z"/>
<path d="M1609 1363 c-15 -9 -34 -31 -43 -49 -14 -30 -14 -37 0 -69 8 -20 29
-44 47 -55 32 -20 67 -26 67 -12 0 4 14 13 30 20 17 8 30 20 30 28 0 8 5 14
10 14 6 0 10 14 10 30 0 17 -4 30 -10 30 -5 0 -10 9 -10 20 0 23 -53 60 -85
60 -11 0 -32 -8 -46 -17z"/>
</g>
</svg>
